<svg xmlns="http://www.w3.org/2000/svg" viewBox="0 0 16 16" width="16" height="16">
  <path d="M 7.27,5.09 L 7.26,2.75 L 8.74,2.75 L 8.73,5.09 L 9.55,5.43 L 11.19,3.77 L 12.23,4.81 L 10.57,6.45 L 10.91,7.27 L 13.25,7.26 L 13.25,8.74 L 10.91,8.73 L 10.57,9.55 L 12.23,11.19 L 11.19,12.23 L 9.55,10.57 L 8.73,10.91 L 8.74,13.25 L 7.26,13.25 L 7.27,10.91 L 6.45,10.57 L 4.81,12.23 L 3.77,11.19 L 5.43,9.55 L 5.09,8.73 L 2.75,8.74 L 2.75,7.26 L 5.09,7.27 L 5.43,6.45 L 3.77,4.81 L 4.81,3.77 L 6.45,5.43 Z"
    fill="#aaaaaa" stroke="#aaaaaa" stroke-width="0.4" stroke-linejoin="round"/>
  <circle cx="8" cy="8" r="1.5" fill="#16161a"/>
</svg>
